<?xml version="1.0" encoding="UTF-8"?>
<svg width="88px" height="48px" viewBox="0 0 88 48" version="1.1" xmlns="http://www.w3.org/2000/svg" xmlns:xlink="http://www.w3.org/1999/xlink">
    <!-- Generator: Sketch 59.1 (86144) - https://sketch.com -->
    <title>编组备份</title>
    <desc>Created with Sketch.</desc>
    <defs>
        <polygon id="path-1" points="0 47.9424 87.9196389 47.9424 87.9196389 0 0 0"></polygon>
    </defs>
    <g id="登录" stroke="none" stroke-width="1" fill="none" fill-rule="evenodd">
        <g id="login" transform="translate(-14.000000, -40.000000)">
            <g id="编组备份" transform="translate(14.000000, 40.000000)">
                <path d="M31.3387708,35.8466133 C30.9633958,36.2467657 30.4847431,36.4479086 29.8539236,36.4479086 C29.2884931,36.4479086 28.8099931,36.2255848 28.4372153,35.8303086 C28.0665764,35.4207086 27.8928681,34.9084038 27.8928681,34.2578895 C27.8928681,33.6543086 28.0665764,33.1374324 28.4417986,32.7371276 C28.8170208,32.3162514 29.3025486,32.1149562 29.8797431,32.1149562 C30.4847431,32.1149562 30.9633958,32.3162514 31.3387708,32.7371276 C31.7185764,33.125699 31.9110764,33.6543086 31.9110764,34.2836419 C31.9110764,34.917699 31.7185764,35.4254324 31.3387708,35.8466133 L31.3387708,35.8466133 Z M31.8102431,30.8843276 L31.8102431,31.6773181 C31.1487153,31.0152229 30.3981181,30.7112229 29.5677708,30.7112229 C28.6060347,30.7112229 27.7895903,31.0479848 27.1632014,31.7148038 C26.5253542,32.3861943 26.1875625,33.2380038 26.1875625,34.2578895 C26.1875625,35.2850895 26.5253542,36.1553371 27.1632014,36.8386133 C27.8083819,37.5311848 28.6174931,37.8562133 29.6215486,37.8562133 C30.3981181,37.8562133 31.1274792,37.5639467 31.8102431,36.9391848 L31.8102431,37.6690895 L33.4779653,37.6690895 L33.4779653,30.8843276 L31.8102431,30.8843276 Z" id="Fill-1" fill="#FFFFFF"></path>
                <path d="M8.892675,27.8169905 L10.6331194,27.8169905 L10.6331194,31.6609524 C10.6331194,31.6609524 11.2616472,30.7742476 12.6128139,30.7742476 C13.8443556,30.7742476 14.9843833,31.6024381 14.9843833,33.6825905 L14.9843833,37.7017905 L13.3964111,37.7017905 L13.3964111,33.5538286 C13.3964111,32.8379429 13.11255,31.9533714 12.1039111,31.9533714 C11.1233833,31.9533714 10.6331194,32.6787048 10.6331194,33.5538286 L10.6331194,37.7017905 L8.892675,37.7017905 L8.892675,27.8169905 Z" id="Fill-3" fill="#FFFFFF"></path>
                <path d="M8.26634722,36.0172952 C7.89097222,36.5390476 7.4195,36.9929905 6.821375,37.327619 C6.13173611,37.7160381 5.35531944,37.9147429 4.50618056,37.9147429 C3.27922222,37.9147429 2.20504167,37.4609524 1.32305556,36.6092952 C0.450236111,35.7225905 0,34.6838095 0,33.4111238 C0,32.0985143 0.492555556,30.9684571 1.49890278,30.0840381 C2.369125,29.3050667 3.359125,28.9049143 4.50373611,28.9049143 C5.313,28.9049143 6.094,29.1226667 6.81419444,29.513219 C7.39826389,29.852419 7.89097222,30.2807619 8.26634722,30.818819 L6.788375,31.8856381 C6.69243056,31.6236952 6.549125,31.4035048 6.36395833,31.1930667 C5.86651389,30.6387048 5.256625,30.344 4.48494444,30.344 C3.73679167,30.344 3.11743056,30.6387048 2.62013889,31.2072381 C2.11826389,31.7780571 1.87656944,32.5312762 1.87656944,33.4111238 C1.87656944,34.3376 2.11826389,35.0839619 2.62013889,35.6642286 C3.10352778,36.2256 3.72029167,36.5062857 4.48494444,36.5062857 C5.22148611,36.5062857 5.85261111,36.2256 6.36395833,35.6500571 C6.52819444,35.4254476 6.68066667,35.2009905 6.788375,34.9599238 C6.788375,34.9599238 7.89097222,35.743619 8.26634722,36.0172952" id="Fill-5" fill="#FFFFFF"></path>
                <path d="M23.0138028,30.7742781 C21.3694556,30.7392305 20.8487889,31.6609829 20.8487889,31.6609829 L20.7595667,30.8608305 L19.2933583,30.8608305 L19.2933583,37.6949638 L20.9963722,37.6949638 L20.9963722,33.5489829 C20.9963722,32.6787352 21.5265111,31.9441067 22.4813722,31.9441067 C23.4993306,31.9441067 23.8090111,32.8379733 23.8090111,33.5489829 L23.8090111,37.6949638 L25.3759,37.6949638 L25.3759,33.6824686 C25.3759,31.5861638 24.2476361,30.7742781 23.0138028,30.7742781" id="Fill-7" fill="#FFFFFF"></path>
                <mask id="mask-2" fill="white">
                    <use xlink:href="#path-1"></use>
                </mask>
                <g id="Clip-10"></g>
                <polygon id="Fill-9" fill="#FFFFFF" mask="url(#mask-2)" points="16.2746528 37.6949333 17.8789722 37.6949333 17.8789722 30.8397714 16.2746528 30.8397714"></polygon>
                <path d="M17.0580056,30.1519695 C16.4996028,30.1519695 16.1314083,29.7262171 16.1314083,29.2395124 C16.1314083,28.71776 16.5327556,28.3223314 17.0836722,28.3223314 C17.66545,28.3223314 18.0172972,28.71776 18.0172972,29.2395124 C18.0172972,29.7262171 17.66545,30.1519695 17.0836722,30.1519695 L17.0580056,30.1519695 Z" id="Fill-11" fill="#FFFFFF" mask="url(#mask-2)"></path>
                <path d="M17.0580056,40.2333714 C16.4996028,40.2333714 16.1314083,39.8170667 16.1314083,39.3373714 C16.1314083,38.8038857 16.5327556,38.3993143 17.0836722,38.3993143 C17.66545,38.3993143 18.0172972,38.8038857 18.0172972,39.3373714 C18.0172972,39.8170667 17.66545,40.2333714 17.0836722,40.2333714 L17.0580056,40.2333714 Z" id="Fill-12" fill="#FFFFFF" mask="url(#mask-2)"></path>
                <path d="M41.4511319,40.8745905 C40.4330208,40.8532571 39.7175625,41.3003429 39.1241736,41.9438476 C38.7277153,41.2255238 38.0545764,40.9117714 37.3438542,40.8745905 C35.8823819,40.8418286 35.2724931,41.763581 35.2724931,41.763581 L35.2022153,40.9469714 L33.6562569,40.9469714 L33.6562569,47.7552 L35.3850903,47.7552 L35.3850903,43.6563048 C35.3850903,42.7671619 35.8519792,42.0558476 36.7527569,42.0558476 C37.6721736,42.0558476 37.9370903,42.9427048 37.9370903,43.6563048 L37.9370903,47.7552 L39.5134514,47.7552 L39.5134514,43.7428571 L39.5134514,43.7523048 C39.5346875,42.601219 40.0600903,42.0558476 40.8575903,42.0558476 C41.7771597,42.0558476 42.0561319,42.9427048 42.0561319,43.6563048 L42.0561319,47.7552 L43.6280625,47.7552 L43.6280625,43.7686095 C43.6280625,41.7003429 42.5862708,40.9117714 41.4511319,40.8745905" id="Fill-13" fill="#FFFFFF" mask="url(#mask-2)"></path>
                <polygon id="Fill-14" fill="#FFFFFF" mask="url(#mask-2)" points="16.2746528 47.7552762 17.8789722 47.7552762 17.8789722 40.9468952 16.2746528 40.9468952"></polygon>
                <path d="M29.3847431,41.9765181 C28.8312292,41.9765181 28.3901597,42.1962514 28.0288403,42.6477562 C27.6511736,43.0971276 27.4799097,43.6726705 27.4799097,44.3487848 C27.4799097,45.0695467 27.6511736,45.649661 28.0172292,46.0964419 C28.3831319,46.5293562 28.8170208,46.7422324 29.3847431,46.7422324 C29.9289375,46.7422324 30.3981181,46.5293562 30.7498125,46.087299 C31.1274792,45.6286324 31.3245625,45.057661 31.3245625,44.3487848 C31.3245625,43.6562133 31.1274792,43.0971276 30.7734931,42.6270324 C30.4051458,42.1962514 29.9452847,41.9765181 29.3847431,41.9765181 M29.2626736,40.7923657 C29.9148819,40.7923657 30.4965069,40.94688 31.0594931,41.2722133 C31.6317986,41.5833752 32.0893681,42.03488 32.3825486,42.5567848 C32.6992569,43.12288 32.8680764,43.726461 32.8680764,44.3394895 C32.8680764,44.9875657 32.6992569,45.5818514 32.3825486,46.1339276 C32.0728681,46.6838705 31.6317986,47.1422324 31.0902014,47.4348038 C30.5363819,47.755261 29.9289375,47.9050514 29.2697014,47.9050514 C28.2893264,47.9050514 27.4611181,47.5797181 26.7740764,46.887299 C26.0679375,46.1829943 25.7417569,45.3453562 25.7417569,44.3487848 C25.7417569,43.2982705 26.1264514,42.4255848 26.9076042,41.7260038 C27.5995347,41.10368 28.3831319,40.7923657 29.2626736,40.7923657" id="Fill-15" fill="#FFFFFF" mask="url(#mask-2)"></path>
                <path d="M12.6128292,40.8418438 C10.9848292,40.8323962 10.4337597,41.7424152 10.4337597,41.7424152 L10.3585931,40.9468343 L8.88077361,40.9468343 L8.88077361,47.7552152 L10.5885236,47.7552152 L10.5885236,43.6398629 C10.5885236,42.7319771 11.1023153,42.0348343 12.0617597,42.0348343 C13.0843014,42.0348343 13.3730514,42.9146819 13.3730514,43.6398629 L13.3730514,47.7552152 L14.9842458,47.7552152 L14.9842458,43.75232 C14.9842458,41.6721676 13.8443708,40.8746057 12.6128292,40.8418438" id="Fill-16" fill="#FFFFFF" mask="url(#mask-2)"></path>
                <path d="M3.76253472,47.8512152 C5.39511806,47.8769676 5.93457639,46.9666438 5.93457639,46.9666438 L6.02150694,47.7552152 L7.50635417,47.7552152 L7.50635417,40.9468343 L5.78454861,40.9468343 L5.78454861,45.0858057 C5.78454861,45.965501 5.28725694,46.6838248 4.30199306,46.6838248 C3.28861806,46.6838248 2.89002083,45.7899581 2.89002083,45.0858057 L2.89002083,40.9468343 L1.16103472,40.9468343 L1.16103472,44.9454629 C1.16103472,47.0368914 2.52625694,47.8371962 3.76253472,47.8512152" id="Fill-17" fill="#FFFFFF" mask="url(#mask-2)"></path>
                <path d="M25.6151347,46.4289067 C25.3172181,46.86624 24.9348153,47.2007162 24.4657875,47.45824 C23.9098292,47.7809829 23.2813014,47.9425067 22.6220653,47.9425067 C21.6510097,47.9425067 20.7994264,47.57984 20.0980236,46.8988495 C19.3873014,46.2041448 19.0401903,45.3712305 19.0401903,44.3815162 C19.0401903,43.3265829 19.4459681,42.4350019 20.2318569,41.7261257 C20.9143153,41.1246781 21.7165514,40.8087924 22.6220653,40.8087924 C23.2483014,40.8087924 23.8769819,40.9703162 24.4517319,41.3003733 C24.9232042,41.5507352 25.3054542,41.8969448 25.5987875,42.3086781 L24.3250792,43.2304305 C24.2476208,43.0270019 24.1350236,42.8724876 24.0178431,42.7319924 C23.6659958,42.3086781 23.2154542,42.0909257 22.6407042,42.0909257 C22.1130097,42.0909257 21.6627736,42.3086781 21.3109264,42.7319924 C20.9353986,43.165059 20.7595514,43.7031162 20.7595514,44.3815162 C20.7595514,45.0576305 20.9353986,45.6122971 21.3109264,46.0497829 C21.6627736,46.4660876 22.1130097,46.662659 22.6407042,46.662659 C23.1920792,46.662659 23.6423153,46.4660876 23.9941625,46.0286019 C24.1350236,45.8740876 24.2476208,45.6986971 24.3250792,45.5115733 L25.6151347,46.4289067 Z" id="Fill-18" fill="#FFFFFF" mask="url(#mask-2)"></path>
                <path d="M76.3154181,41.1037562 C75.7102653,40.2543848 75.0392653,39.7958705 75.0392653,39.7958705 L74.3872097,40.2591086 L75.4826264,41.72608 L76.3154181,41.1037562 Z M80.3501264,42.9426895 L81.6589736,42.9426895 L81.6589736,42.3881752 L80.3501264,42.3881752 L80.3501264,42.9426895 Z M80.3501264,44.2786133 L81.6589736,44.2786133 L81.6589736,43.7265371 L80.3501264,43.7265371 L80.3501264,44.2786133 Z M77.9525847,42.9426895 L79.2403486,42.9426895 L79.2403486,42.3881752 L77.9525847,42.3881752 L77.9525847,42.9426895 Z M77.9525847,44.2786133 L79.2403486,44.2786133 L79.2403486,43.7265371 L77.9525847,43.7265371 L77.9525847,44.2786133 Z M79.6229042,41.251261 C79.0973486,40.9001752 78.4967792,40.6335086 78.4967792,40.6335086 L78.0676264,41.1880229 L78.4967792,41.5715657 L76.8267653,41.5715657 L76.8267653,46.482499 L77.1740292,46.482499 C77.5329042,46.482499 77.9527375,46.2415848 77.9527375,45.7457371 L77.9527375,45.0694705 L79.2403486,45.0694705 L79.2403486,46.482499 L79.5921958,46.482499 C80.0263903,46.482499 80.3336264,46.2533181 80.3499736,45.7361371 L80.3499736,45.0694705 L81.6589736,45.0694705 L81.6589736,45.3992229 C81.6589736,45.5444419 81.4667792,45.6497371 81.3282097,45.6497371 L80.8191542,45.6497371 L81.0419042,46.482499 L81.8490292,46.482499 C82.3978069,46.482499 82.8387236,46.0497371 82.8387236,45.490499 L82.8387236,42.2501181 C82.8387236,41.8757181 82.5291958,41.5715657 82.1631403,41.5715657 L80.8568903,41.5715657 L82.5760986,40.5469562 L82.5760986,39.6111848 L76.7680986,39.6111848 L76.7680986,40.4157562 L81.0137931,40.4157562 L79.6229042,41.251261 Z M76.6976681,46.8661943 C76.4021958,46.8661943 76.1582097,46.6205562 76.1582097,46.3260038 L76.1582097,42.0910324 L74.3073069,42.0910324 L74.3073069,42.9146514 L74.9243764,42.9146514 L74.9243764,46.6533181 C74.9243764,47.2919467 75.4826264,47.6803657 75.9168208,47.6803657 L82.9632375,47.6803657 L82.9632375,46.8661943 L76.6976681,46.8661943 Z" id="Fill-19" fill="#FFFFFF" mask="url(#mask-2)"></path>
                <path d="M71.837425,44.1640229 L73.272925,44.1640229 L73.272925,43.3404038 L71.6663139,43.3404038 L71.6663139,42.0910324 L73.272925,42.0910324 L73.272925,41.2721371 L72.2245639,41.2721371 L73.1675083,40.0954514 L72.2714667,39.4543848 L71.1124944,41.2721371 L70.2635083,41.2721371 L70.9555917,40.7715657 C70.3667861,39.9621181 69.860175,39.4543848 69.860175,39.4543848 L69.21255,39.8543848 L70.0546611,41.2721371 L69.0108833,41.2721371 L69.0108833,42.0910324 L70.3808417,42.0910324 L70.3808417,43.3404038 L69.0108833,43.3404038 L69.0108833,44.1640229 L70.225925,44.1640229 L68.8020361,47.8371657 L69.4094806,47.8371657 C69.7426889,47.8371657 70.0734528,47.6125562 70.1955222,47.3131276 L71.0775083,45.1279848 L72.2784944,47.8371657 L73.4912444,47.8371657 L71.837425,44.1640229 Z M66.3297861,43.539261 L67.3289528,43.539261 L67.3289528,42.5402514 L66.3297861,42.5402514 L66.3297861,43.539261 Z M67.3289528,45.3571657 L66.3297861,45.6285562 L66.3297861,44.3651657 L67.3289528,44.3651657 L67.3289528,45.3571657 Z M69.0507583,44.8823467 L68.5018278,45.04128 L68.5018278,40.4626895 C68.5018278,39.9409371 68.1874111,39.6299276 67.8028694,39.6299276 L64.8825222,39.6299276 L64.8825222,40.4626895 L67.3289528,40.4626895 L67.3289528,41.72608 L66.3297861,41.72608 L66.3297861,40.8745752 L65.2294806,40.8745752 L65.2294806,45.958461 L64.7416611,46.0965181 L64.7416611,47.0042514 L67.3289528,46.272061 L67.3289528,47.942461 L67.8028694,47.942461 C68.1548694,47.942461 68.3939667,47.7131276 68.5018278,47.2686324 L68.5018278,45.958461 L69.0507583,45.7992229 L69.0507583,44.8823467 Z" id="Fill-20" fill="#FFFFFF" mask="url(#mask-2)"></path>
                <path d="M52.3327444,44.2318781 C52.3327444,44.5358781 52.0983833,44.7582019 51.8026056,44.7582019 L50.1652861,44.7582019 L50.1652861,41.4335543 L52.3327444,41.4335543 L52.3327444,44.2318781 Z M52.8443972,40.6007924 L50.1652861,40.6007924 L50.1652861,39.4542781 L48.7556056,39.4542781 L48.7556056,40.6007924 L46.9962167,40.6007924 L46.9962167,41.4335543 L48.7556056,41.4335543 L48.7556056,44.7582019 L46.5763833,44.7582019 L46.5763833,40.6007924 L45.1737306,40.6007924 L45.1737306,45.5700876 L48.7556056,45.5700876 L48.7556056,47.9425067 L48.973925,47.9425067 C49.7761611,47.905021 50.1278556,47.558659 50.1652861,46.966659 L50.1652861,45.5700876 L52.5322722,45.5700876 C53.1655361,45.5700876 53.695675,45.0695162 53.7308139,44.4191543 L53.7308139,41.4384305 C53.695675,40.9796114 53.3322167,40.6007924 52.8443972,40.6007924 L52.8443972,40.6007924 Z" id="Fill-21" fill="#FFFFFF" mask="url(#mask-2)"></path>
                <path d="M61.7015667,45.2659505 L61.0751778,45.2659505 L61.4928722,44.7487695 C60.9463861,44.2434743 60.5077611,43.9908267 60.5077611,43.9908267 L60.0220806,44.4775314 L60.7282194,45.2659505 L59.768775,45.2659505 L59.768775,43.8923886 L61.6687194,43.8923886 L61.6687194,43.0690743 L59.768775,43.0690743 L59.768775,42.0558933 L61.6687194,42.0558933 L61.6687194,41.2418743 L56.7590528,41.2418743 L56.7590528,42.0558933 L58.4715389,42.0558933 L58.4715389,43.0690743 L56.7590528,43.0690743 L56.7590528,43.8923886 L58.4715389,43.8923886 L58.4715389,45.2659505 L56.7263583,45.2659505 L56.7263583,46.0872838 L61.7015667,46.0872838 L61.7015667,45.2659505 Z M62.5368028,39.6112457 L56.7263583,39.6112457 L56.7263583,40.4158171 L62.1356083,40.4158171 L62.1356083,46.3585219 C62.1356083,46.6532267 61.9128583,46.8872838 61.6149417,46.8872838 L56.290025,46.8872838 L56.290025,39.6112457 L55.0022611,39.6112457 L55.0022611,47.703741 L62.2598167,47.703741 C62.9049972,47.703741 63.4351361,47.1798552 63.4351361,46.529341 L63.4351361,40.49536 C63.4351361,40.0088076 63.0363861,39.6112457 62.5368028,39.6112457 L62.5368028,39.6112457 Z" id="Fill-22" fill="#FFFFFF" mask="url(#mask-2)"></path>
                <path d="M48.0166194,19.3779352 C47.1841333,20.2039924 45.83755,20.2039924 45.0073556,19.3779352 C44.5873694,18.9616305 44.3834111,18.4188495 44.3834111,17.8759162 C44.3834111,17.3308495 44.5873694,16.7880686 45.0073556,16.3763352 C45.83755,15.5457067 47.1841333,15.5457067 48.0166194,16.3763352 C48.6922028,17.0477257 49.52255,17.8759162 49.52255,17.8759162 C49.52255,17.8759162 48.6922028,18.7019733 48.0166194,19.3779352 L48.0166194,19.3779352 Z M54.6598556,22.9997257 L57.5238278,20.1453257 L55.2416333,17.8759162 L57.5238278,15.604221 L54.6598556,12.752259 L52.3843833,15.0215162 C52.3843833,15.0215162 51.5705361,14.2074971 50.8761611,13.5194971 C48.4671611,11.1144686 44.5568139,11.1144686 42.1406333,13.5194971 C40.9398,14.7245257 40.3344944,16.29664 40.3344944,17.8759162 C40.3344944,19.453059 40.9398,21.0251733 42.1406333,22.2347733 C44.5568139,24.6398019 48.4671611,24.6398019 50.8761611,22.2347733 C51.5705361,21.5422019 52.3843833,20.7327543 52.3843833,20.7327543 L54.6598556,22.9997257 Z" id="Fill-23" fill="#FFFFFF" mask="url(#mask-2)"></path>
                <path d="M83.2517431,19.3779352 C82.4166597,20.2039924 81.0702292,20.2039924 80.2398819,19.3779352 C79.5620069,18.7019733 78.7315069,17.8759162 78.7315069,17.8759162 C78.7315069,17.8759162 79.5620069,17.0477257 80.2398819,16.3763352 C81.0702292,15.5457067 82.4166597,15.5457067 83.2517431,16.3763352 C83.6645486,16.7880686 83.8711042,17.3308495 83.8711042,17.8759162 C83.8711042,18.4188495 83.6645486,18.9616305 83.2517431,19.3779352 M86.1111319,13.5194971 C83.6998403,11.1144686 79.7917847,11.1144686 77.3756042,13.5194971 C76.6836736,14.2074971 75.8721181,15.0215162 75.8721181,15.0215162 L73.5919097,12.752259 L70.7349653,15.604221 L73.0127292,17.8759162 L70.7349653,20.1453257 L73.5919097,22.9997257 L75.8721181,20.7327543 C75.8721181,20.7327543 76.6836736,21.5422019 77.3756042,22.2347733 C79.7917847,24.6398019 83.6998403,24.6398019 86.1111319,22.2347733 C87.3191458,21.0251733 87.9197153,19.453059 87.9197153,17.8759162 C87.9197153,16.29664 87.3191458,14.7245257 86.1111319,13.5194971" id="Fill-24" fill="#FFFFFF" mask="url(#mask-2)"></path>
                <path d="M71.5066458,31.0901333 C70.6740069,31.9183238 69.3251319,31.9183238 68.4947847,31.0901333 C67.6949931,30.289981 66.9911458,29.5856762 66.9911458,29.5856762 L69.2641736,27.3162667 L66.4046319,24.4644571 L64.1247292,26.7337143 L61.8518542,24.4644571 L58.9898681,27.3162667 L61.2653403,29.5856762 C61.2653403,29.5856762 60.5614931,30.289981 59.7569653,31.0901333 C58.9266181,31.9183238 57.5824792,31.9183238 56.7498403,31.0901333 C55.9196458,30.264381 55.9196458,28.9167238 56.7498403,28.0885333 C57.6225069,27.220419 64.1247292,20.7326476 64.1247292,20.7326476 C64.1247292,20.7326476 70.6316875,27.220419 71.5066458,28.0885333 C72.3372986,28.9167238 72.3372986,30.264381 71.5066458,31.0901333 M56.7498403,7.66125714 C55.9196458,6.83306667 55.9196458,5.48540952 56.7498403,4.66422857 C57.5824792,3.83344762 58.9266181,3.83344762 59.7569653,4.66422857 C60.5614931,5.45965714 61.2653403,6.16853333 61.2653403,6.16853333 L58.9898681,8.43337143 L61.8518542,11.2853333 L64.1247292,9.0136381 L66.4046319,11.2853333 L69.2641736,8.43337143 L66.9911458,6.16853333 C66.9911458,6.16853333 67.6949931,5.45965714 68.4947847,4.66422857 C69.3251319,3.83344762 70.6740069,3.83344762 71.5066458,4.66422857 C72.3372986,5.48540952 72.3372986,6.83306667 71.5066458,7.66125714 C70.6316875,8.53622857 64.1247292,15.0169905 64.1247292,15.0169905 C64.1247292,15.0169905 57.6225069,8.53622857 56.7498403,7.66125714 M66.9841181,17.8759619 C66.9841181,17.8759619 73.6976319,11.1847619 74.3661875,10.5179429 C76.7774792,8.11260952 76.7774792,4.21028571 74.3661875,1.80739048 C71.9570347,-0.602361905 68.0421042,-0.602361905 65.6308125,1.80739048 C64.6829792,2.75032381 64.1247292,3.3048381 64.1247292,3.3048381 C64.1247292,3.3048381 63.5712153,2.75032381 62.6235347,1.80739048 C60.2143819,-0.602361905 56.2994514,-0.602361905 53.8927431,1.80739048 C51.4790069,4.21028571 51.4790069,8.11260952 53.8927431,10.5179429 C54.5637431,11.1847619 61.2653403,17.8759619 61.2653403,17.8759619 C61.2653403,17.8759619 54.5637431,24.5648762 53.8927431,25.2316952 C51.4790069,27.6416 51.4790069,31.5440762 53.8927431,33.9469714 C56.2994514,36.352 60.2143819,36.352 62.6235347,33.9469714 C63.5712153,32.9993143 64.1247292,32.4449524 64.1247292,32.4449524 C64.1247292,32.4449524 64.6829792,32.9993143 65.6308125,33.9469714 C68.0421042,36.352 71.9570347,36.352 74.3661875,33.9469714 C76.7774792,31.5440762 76.7774792,27.6416 74.3661875,25.2316952 C73.6976319,24.5648762 66.9841181,17.8759619 66.9841181,17.8759619" id="Fill-25" fill="#FFFFFF" mask="url(#mask-2)"></path>
            </g>
        </g>
    </g>
</svg>